<?xml version="1.0" standalone="no"?><!DOCTYPE svg PUBLIC "-//W3C//DTD SVG 1.1//EN" "http://www.w3.org/Graphics/SVG/1.1/DTD/svg11.dtd"><svg t="1565760838040" class="icon" viewBox="0 0 1024 1024" version="1.1" xmlns="http://www.w3.org/2000/svg" p-id="1948" xmlns:xlink="http://www.w3.org/1999/xlink" width="200" height="200"><defs><style type="text/css"></style></defs><path d="M512 630.240432c-16.270211 0-29.572899-13.405016-29.572899-29.572899L482.427101 187.465574c0-16.270211 13.302688-29.675227 29.572899-29.675227s29.572899 13.405016 29.572899 29.572899l0 413.304287C541.572899 616.937744 528.270211 630.240432 512 630.240432zM512 1023.693015c-282.119316 0-511.641851-229.522534-511.641851-511.641851s229.522534-511.641851 511.641851-511.641851 511.641851 229.522534 511.641851 511.641851C1023.641851 794.272809 794.119316 1023.693015 512 1023.693015zM512.102328 59.452783c-249.681223 0-452.598381 202.917158-452.598381 452.598381s202.917158 452.598381 452.496053 452.598381 452.598381-202.917158 452.598381-452.598381C964.598381 262.472269 761.783552 59.452783 512.102328 59.452783zM571.04347 787.212151c0-32.233437-26.298391-58.531828-58.531828-58.531828s-58.531828 26.298391-58.531828 58.531828 26.298391 58.531828 58.531828 58.531828C544.64275 845.743979 571.04347 819.445588 571.04347 787.212151z" p-id="1949"></path></svg>