<svg width="484.157" height="484.157" xmlns="http://www.w3.org/2000/svg">

 <g>
  <title>background</title>
  <rect fill="none" id="canvas_background" height="402" width="582" y="-1" x="-1"/>
 </g>
 <g>
  <title>Layer 1</title>
  <g id="svg_1">
   <path fill="#839cb2" id="svg_2" d="m362.282,1.009l-193.647,0c-28.289,0 -51.316,23.041 -51.316,51.315l0,5.5l-96.641,0c-11.419,0 -20.678,9.252 -20.678,20.679l0,113.301c0,11.426 9.259,20.677 20.678,20.677l96.641,0l0,219.352c0,28.305 23.026,51.315 51.316,51.315l264.222,0c28.273,0 51.299,-23.01 51.299,-51.315l0,-309.375l-121.874,-121.449zm-250.463,107.406l-23.743,0l0,70.448l-19.747,0l0,-70.448l-23.35,0l0,-16.517l66.84,0l0,16.517zm81.332,70.448l-22.712,0l-7.873,-15.745c-3.223,-6.067 -5.287,-10.575 -7.745,-15.618l-0.253,0c-1.813,5.043 -4.002,9.551 -6.714,15.618l-7.225,15.745l-22.45,0l25.16,-44.003l-24.254,-42.963l22.576,0l7.612,15.871c2.586,5.28 4.524,9.551 6.588,14.451l0.252,0c2.065,-5.547 3.744,-9.423 5.942,-14.451l7.353,-15.871l22.45,0l-24.516,42.443l25.809,44.523zm239.706,272.859l-264.222,0c-10.954,0 -19.873,-8.92 -19.873,-19.889l0,-219.352l147.95,0c11.418,0 20.677,-9.251 20.677,-20.677l0,-113.301c0,-11.427 -9.259,-20.679 -20.677,-20.679l-147.95,0l0,-5.5c0,-10.938 8.919,-19.858 19.873,-19.858l181.89,-0.189l0,67.234c0,19.637 15.934,35.586 35.587,35.586l65.863,-0.188l0.741,296.925c0,10.968 -8.906,19.888 -19.859,19.888zm-234.892,-343.307l0,-16.517l66.839,0l0,16.518l-23.743,0l0,70.448l-19.747,0l0,-70.448l-23.349,0l0,-0.001z"/>
   <path fill="#839cb2" id="svg_3" d="m402.283,250.163l-203.08,0c-8.913,0 -16.139,7.218 -16.139,16.139c0,8.92 7.226,16.139 16.139,16.139l203.08,0c8.912,0 16.139,-7.219 16.139,-16.139c-0.001,-8.921 -7.227,-16.139 -16.139,-16.139z"/>
   <path fill="#839cb2" id="svg_4" d="m402.283,314.718l-203.08,0c-8.913,0 -16.139,7.217 -16.139,16.139c0,8.92 7.226,16.139 16.139,16.139l203.08,0c8.912,0 16.139,-7.219 16.139,-16.139c-0.001,-8.922 -7.227,-16.139 -16.139,-16.139z"/>
   <path fill="#839cb2" id="svg_5" d="m402.283,379.273l-203.08,0c-8.913,0 -16.139,7.217 -16.139,16.139c0,8.92 7.226,16.139 16.139,16.139l203.08,0c8.912,0 16.139,-7.219 16.139,-16.139c-0.001,-8.923 -7.227,-16.139 -16.139,-16.139z"/>
  </g>
  <g id="svg_6"/>
  <g id="svg_7"/>
  <g id="svg_8"/>
  <g id="svg_9"/>
  <g id="svg_10"/>
  <g id="svg_11"/>
  <g id="svg_12"/>
  <g id="svg_13"/>
  <g id="svg_14"/>
  <g id="svg_15"/>
  <g id="svg_16"/>
  <g id="svg_17"/>
  <g id="svg_18"/>
  <g id="svg_19"/>
  <g id="svg_20"/>
 </g>
</svg>