<?xml version="1.0" standalone="no"?><!DOCTYPE svg PUBLIC "-//W3C//DTD SVG 1.1//EN" "http://www.w3.org/Graphics/SVG/1.1/DTD/svg11.dtd"><svg t="1565191767371" class="icon" viewBox="0 0 1024 1024" version="1.1" xmlns="http://www.w3.org/2000/svg" p-id="4989" xmlns:xlink="http://www.w3.org/1999/xlink" width="200" height="200"><defs><style type="text/css"></style></defs><path d="M256 955.733333c-66.030933 0-102.4-36.369067-102.4-102.4V341.333333c0-4.420267 1.6896-8.465067 4.4544-11.485866l0.017067-0.017067a7.9872 7.9872 0 0 1 0.529066-0.546133l256-256 1.006934-0.938667s0-0.034133 0.017066-0.017067l0.034134-0.034133a16.9472 16.9472 0 0 1 10.257066-3.9936c0.3072-0.034133 0.580267 0 0.887467-0.034133H768c66.030933 0 102.4 36.369067 102.4 102.4v688.64c-1.9968 60.398933-36.027733 94.429867-95.863467 96.4096L256 955.733333z m-68.266667-597.333333v494.933333c0 47.223467 21.0432 68.266667 68.266667 68.266667h517.973333c41.5232-1.3824 60.910933-20.7872 62.3104-62.8736L836.266667 170.666667c0-47.223467-21.0432-68.266667-68.266667-68.266667H443.733333v238.933333a17.066667 17.066667 0 0 1-17.066666 17.066667H187.733333z m24.132267-34.133333H409.6V126.532267L211.8656 324.266667zM597.333333 614.4H341.333333a17.066667 17.066667 0 1 1 0-34.133333h256a17.066667 17.066667 0 1 1 0 34.133333z m85.333334-85.333333H341.333333a17.066667 17.066667 0 1 1 0-34.133334h341.333334a17.066667 17.066667 0 1 1 0 34.133334z m0-85.333334H426.666667a17.066667 17.066667 0 0 1 0-34.133333h256a17.066667 17.066667 0 1 1 0 34.133333z" p-id="4990" fill="#333333"></path></svg>