<?xml version="1.0" standalone="no"?><!DOCTYPE svg PUBLIC "-//W3C//DTD SVG 1.1//EN" "http://www.w3.org/Graphics/SVG/1.1/DTD/svg11.dtd"><svg t="1565191524118" class="icon" viewBox="0 0 1024 1024" version="1.1" xmlns="http://www.w3.org/2000/svg" p-id="1139" xmlns:xlink="http://www.w3.org/1999/xlink" width="200" height="200"><defs><style type="text/css"></style></defs><path d="M776 248 534.384 248c-7.408-36.512-39.68-64-78.384-64l-224 0c-44.192 0-80 35.808-80 80l0 496c0 44.192 35.808 80 80 80l544 0c44.192 0 80-35.808 80-80l0-432C856 283.824 820.192 248 776 248zM184 264c0-26.512 21.488-48 48-48l224 0c26.496 0 48 21.488 48 48l0 16 272 0c26.512 0 48 21.488 48 48l0 32-640 0L184 264zM776 808l-544 0c-26.512 0-48-21.488-48-48l0-368 640 0 0 368C824 786.512 802.512 808 776 808z" p-id="1140" fill="#333333"></path></svg>