<svg width="420" height="420" xmlns="http://www.w3.org/2000/svg">

 <g>
  <title>background</title>
  <rect fill="none" id="canvas_background" height="402" width="582" y="-1" x="-1"/>
 </g>
 <g>
  <title>Layer 1</title>
  <g id="svg_1">
   <path fill="#839cb2" id="svg_2" d="m390,69.715l-150,0l0,40l150,0c10.925,0 21.167,2.949 30,8.072l0,-18.072c0,-16.5 -13.5,-30 -30,-30z"/>
   <path fill="#839cb2" id="svg_3" d="m390,139.715l-180,0l0,-70c0,-16.5 -13.5,-30 -30,-30l-150,0c-16.5,0 -30,13.5 -30,30l0,310.57l420,0l0,-210.57c0,-16.5 -13.5,-30 -30,-30z"/>
  </g>
  <g id="svg_4"/>
  <g id="svg_5"/>
  <g id="svg_6"/>
  <g id="svg_7"/>
  <g id="svg_8"/>
  <g id="svg_9"/>
  <g id="svg_10"/>
  <g id="svg_11"/>
  <g id="svg_12"/>
  <g id="svg_13"/>
  <g id="svg_14"/>
  <g id="svg_15"/>
  <g id="svg_16"/>
  <g id="svg_17"/>
  <g id="svg_18"/>
 </g>
</svg>