<svg width="484.157" height="484.157" xmlns="http://www.w3.org/2000/svg">

 <g>
  <title>background</title>
  <rect fill="none" id="canvas_background" height="402" width="582" y="-1" x="-1"/>
 </g>
 <g>
  <title>Layer 1</title>
  <g id="svg_1">
   <path fill="#839cb2" id="svg_2" d="m151.63,118.864c0,-8.007 -5.555,-12.782 -15.359,-12.782c-4.002,0 -6.713,0.396 -8.132,0.773l0,25.689c1.678,0.378 3.744,0.504 6.588,0.504c10.449,0 16.903,-5.279 16.903,-14.184z"/>
   <path fill="#839cb2" id="svg_3" d="m362.282,1.009l-193.647,0c-28.289,0 -51.316,23.041 -51.316,51.314l0,5.5l-96.641,0c-11.419,0 -20.678,9.253 -20.678,20.68l0,113.301c0,11.426 9.259,20.676 20.678,20.676l96.641,0l0,219.353c0,28.306 23.026,51.315 51.316,51.315l264.222,0c28.273,0 51.299,-23.01 51.299,-51.315l0,-309.375l-121.874,-121.449zm-270.045,145.861c0,24.774 -11.867,33.412 -30.968,33.412c-4.516,0 -10.45,-0.773 -14.318,-2.064l2.19,-15.871c2.711,0.898 6.194,1.545 10.064,1.545c8.258,0 13.419,-3.736 13.419,-17.289l0,-54.705l19.613,0l0,54.972zm16.422,31.993l0,-85.815c6.06,-1.025 14.578,-1.796 26.581,-1.796c12.126,0 20.772,2.317 26.58,6.966c5.547,4.381 9.29,11.616 9.29,20.126c0,8.511 -2.836,15.745 -7.999,20.646c-6.713,6.32 -16.642,9.158 -28.257,9.158c-2.585,0 -4.902,-0.127 -6.715,-0.379l0,31.095l-19.48,0l0,-0.001zm324.198,272.859l-264.222,0c-10.954,0 -19.873,-8.92 -19.873,-19.89l0,-219.352l147.95,0c11.418,0 20.677,-9.25 20.677,-20.676l0,-113.301c0,-11.427 -9.259,-20.68 -20.677,-20.68l-147.95,0l0,-5.5c0,-10.936 8.919,-19.857 19.873,-19.857l181.89,-0.189l0,67.233c0,19.638 15.934,35.587 35.587,35.587l65.863,-0.188l0.741,296.924c0,10.969 -8.906,19.889 -19.859,19.889zm-205.184,-287.83c4.516,0 8.124,-0.506 9.676,-1.293l0,-18.188l-13.419,0l0,-15.35l32.387,0l0,45.799c-6.068,2.064 -17.549,4.902 -29.03,4.902c-15.879,0 -27.36,-3.988 -35.358,-11.742c-7.999,-7.485 -12.388,-18.834 -12.262,-31.616c0.134,-28.904 21.166,-45.421 49.684,-45.421c11.221,0 19.867,2.207 24.129,4.256l-4.128,15.745c-4.775,-2.065 -10.717,-3.735 -20.26,-3.735c-16.39,0 -28.778,9.282 -28.778,28.133c-0.001,17.934 11.229,28.51 27.359,28.51z"/>
   <path fill="#839cb2" id="svg_4" d="m385.396,252.873l-169.313,0c-7.85,0 -14.209,6.368 -14.209,14.2l0,128.699c0,7.834 6.358,14.2 14.209,14.2l169.313,0c7.848,0 14.207,-6.366 14.207,-14.2l0,-128.699c0,-7.832 -6.359,-14.2 -14.207,-14.2zm-13.263,132.736c-1.301,2.474 -3.877,4.018 -6.691,4.018l-57.375,0c-2.719,0 -5.248,-1.45 -6.579,-3.813c-1.341,-2.381 -1.301,-5.297 0.11,-7.629l26.753,-44.414c1.323,-2.205 3.671,-3.576 6.233,-3.654c0.087,0 0.167,0 0.246,0c2.474,0 4.798,1.229 6.208,3.277l30.622,44.414c1.591,2.314 1.78,5.295 0.473,7.801zm-13.46,-119.26c13.806,0 24.996,11.175 24.996,24.982c0,13.805 -11.189,24.98 -24.996,24.98c-13.79,0 -24.979,-11.175 -24.979,-24.98c0,-13.807 11.189,-24.982 24.979,-24.982zm-125.839,123.262c-2.726,0 -5.24,-1.465 -6.58,-3.83c-1.332,-2.38 -1.291,-5.279 0.111,-7.611l40.314,-66.92c1.323,-2.189 3.673,-3.576 6.233,-3.654c2.561,-0.08 4.988,1.15 6.447,3.262l25.31,36.69l-14.365,23.845c-3.349,5.563 -3.696,12.293 -1.364,18.219l-56.106,0l0,-0.001z"/>
  </g>
  <g id="svg_5"/>
  <g id="svg_6"/>
  <g id="svg_7"/>
  <g id="svg_8"/>
  <g id="svg_9"/>
  <g id="svg_10"/>
  <g id="svg_11"/>
  <g id="svg_12"/>
  <g id="svg_13"/>
  <g id="svg_14"/>
  <g id="svg_15"/>
  <g id="svg_16"/>
  <g id="svg_17"/>
  <g id="svg_18"/>
  <g id="svg_19"/>
 </g>
</svg>