<svg width="384" height="384" xmlns="http://www.w3.org/2000/svg">

 <g>
  <title>background</title>
  <rect fill="none" id="canvas_background" height="402" width="582" y="-1" x="-1"/>
 </g>
 <g>
  <title>Layer 1</title>
  <g id="svg_1">
   <g id="svg_2">
    <path fill="#839cb2" id="svg_3" d="m64,0l0,80l-64,0l0,144l64,0l0,160l224,0l96,-96l0,-288l-320,0zm-48,208l0,-112l240,0l0,112l-240,0zm272,153.376l0,-73.376l73.376,0l-73.376,73.376zm80,-89.376l-96,0l0,96l-192,0l0,-144l192,0l0,-144l-192,0l0,-64l288,0l0,256z"/>
   </g>
  </g>
  <g id="svg_4">
   <g id="svg_5">
    <path fill="#839cb2" id="svg_6" d="m50.848,114.168l0,48.976c0,3.648 -0.384,6.352 -1.184,8.112c-0.816,1.744 -2.448,2.64 -4.96,2.64c-2.512,0 -4.144,-0.896 -4.944,-2.64c-0.816,-1.776 -1.2,-4.464 -1.2,-8.112l0,-2.128l-12.688,0l0,2.992c0,2.672 0.256,5.248 0.768,7.664c0.512,2.432 1.456,4.544 2.832,6.384c1.376,1.84 3.248,3.232 5.584,4.224c2.336,1.008 5.328,1.504 8.976,1.504c6.992,0 12.16,-1.568 15.552,-4.656c3.408,-3.12 5.088,-8.32 5.088,-15.616l0,-49.344l-13.824,0z"/>
   </g>
  </g>
  <g id="svg_7">
   <g id="svg_8">
    <path fill="#839cb2" id="svg_9" d="m121.808,158.272c-0.4,-1.744 -1.072,-3.312 -2.064,-4.752c-0.992,-1.44 -2.32,-2.784 -3.984,-4.032c-1.664,-1.264 -3.808,-2.464 -6.432,-3.616l-10.656,-4.608c-2.928,-1.2 -4.848,-2.528 -5.744,-3.984c-0.912,-1.44 -1.344,-3.2 -1.344,-5.328c0,-1.024 0.112,-2.016 0.336,-2.976s0.64,-1.808 1.248,-2.544c0.608,-0.736 1.424,-1.328 2.448,-1.776c1.008,-0.432 2.288,-0.672 3.824,-0.672c2.688,0 4.608,0.896 5.76,2.64c1.152,1.776 1.728,4.288 1.728,7.552l13.248,0l0,-1.92c0,-3.264 -0.544,-6.064 -1.6,-8.4c-1.04,-2.32 -2.528,-4.24 -4.4,-5.744c-1.888,-1.52 -4.144,-2.592 -6.736,-3.264c-2.576,-0.672 -5.424,-1.008 -8.48,-1.008c-6.592,0 -11.792,1.664 -15.568,4.992s-5.664,8.368 -5.664,15.152c0,2.832 0.336,5.296 1.04,7.456c0.704,2.144 1.808,4.032 3.312,5.664c1.52,1.648 3.376,3.072 5.632,4.272c2.24,1.216 4.896,2.352 7.968,3.376c2.288,0.768 4.224,1.52 5.792,2.256c1.568,0.736 2.832,1.536 3.792,2.448c0.976,0.88 1.664,1.888 2.064,3.008c0.416,1.12 0.624,2.448 0.624,3.984c0,2.864 -0.848,5.008 -2.544,6.384c-1.68,1.376 -3.584,2.064 -5.696,2.064c-1.792,0 -3.28,-0.272 -4.464,-0.768c-1.184,-0.512 -2.128,-1.216 -2.832,-2.128c-0.704,-0.896 -1.184,-2 -1.44,-3.312c-0.256,-1.296 -0.4,-2.752 -0.4,-4.352l0,0l0,-2.016l-13.824,0l0,2.784c0,6.336 1.68,11.2 5.04,14.592c3.36,3.392 8.944,5.088 16.752,5.088c7.488,0 13.328,-1.664 17.52,-4.96c4.208,-3.296 6.304,-8.56 6.304,-15.792c0,-2.112 -0.176,-4.032 -0.56,-5.76z"/>
   </g>
  </g>
  <g id="svg_10">
   <g id="svg_11">
    <path fill="#839cb2" id="svg_12" d="m179.504,135.088c-0.48,-4.368 -1.52,-8.144 -3.168,-11.28c-1.616,-3.12 -3.984,-5.584 -7.04,-7.344c-3.072,-1.744 -7.2,-2.64 -12.384,-2.64c-5.168,0 -9.312,0.896 -12.368,2.64c-3.072,1.76 -5.408,4.224 -7.056,7.344c-1.616,3.136 -2.688,6.912 -3.168,11.28c-0.48,4.4 -0.72,9.184 -0.72,14.352c0,5.232 0.256,10.048 0.72,14.384c0.48,4.352 1.536,8.096 3.168,11.232c1.632,3.136 3.984,5.536 7.056,7.2c3.056,1.648 7.2,2.496 12.368,2.496c5.184,0 9.312,-0.832 12.384,-2.496c3.056,-1.664 5.408,-4.064 7.04,-7.2c1.632,-3.136 2.688,-6.88 3.168,-11.232c0.48,-4.336 0.72,-9.152 0.72,-14.384c0,-5.184 -0.24,-9.968 -0.72,-14.352zm-13.392,26.112c-0.224,3.232 -0.672,5.856 -1.344,7.872c-0.672,2.016 -1.632,3.472 -2.88,4.416c-1.264,0.928 -2.912,1.392 -4.96,1.392c-2.048,0 -3.696,-0.464 -4.944,-1.392s-2.208,-2.4 -2.88,-4.416s-1.12,-4.64 -1.344,-7.872s-0.336,-7.136 -0.336,-11.744c0,-4.608 0.096,-8.512 0.336,-11.712c0.224,-3.2 0.672,-5.824 1.344,-7.872c0.672,-2.048 1.632,-3.52 2.88,-4.448c1.264,-0.944 2.896,-1.408 4.944,-1.408c2.048,0 3.712,0.464 4.96,1.408c1.248,0.912 2.208,2.4 2.88,4.448c0.672,2.048 1.136,4.672 1.344,7.872s0.336,7.104 0.336,11.712c0,4.608 -0.112,8.512 -0.336,11.744z"/>
   </g>
  </g>
  <g id="svg_13">
   <g id="svg_14">
    <polygon fill="#839cb2" id="svg_15" points="227.024,115.168 227.024,162.128 226.816,162.128 210.112,115.168 194.176,115.168 194.176,183.712     206.848,183.712 206.848,135.712 207.056,135.712 223.952,183.712 239.696,183.712 239.696,115.168   "/>
   </g>
  </g>
  <g id="svg_16"/>
  <g id="svg_17"/>
  <g id="svg_18"/>
  <g id="svg_19"/>
  <g id="svg_20"/>
  <g id="svg_21"/>
  <g id="svg_22"/>
  <g id="svg_23"/>
  <g id="svg_24"/>
  <g id="svg_25"/>
  <g id="svg_26"/>
  <g id="svg_27"/>
  <g id="svg_28"/>
  <g id="svg_29"/>
  <g id="svg_30"/>
 </g>
</svg>