<svg width="482.14" height="482.14" xmlns="http://www.w3.org/2000/svg">

 <g>
  <title>background</title>
  <rect fill="none" id="canvas_background" height="402" width="582" y="-1" x="-1"/>
 </g>
 <g>
  <title>Layer 1</title>
  <g id="svg_1">
   <path fill="#839cb2" id="svg_2" d="m142.024,310.194c0,-8.007 -5.556,-12.782 -15.359,-12.782c-4.003,0 -6.714,0.395 -8.132,0.773l0,25.69c1.679,0.378 3.743,0.504 6.588,0.504c10.449,0 16.903,-5.279 16.903,-14.185z"/>
   <path fill="#839cb2" id="svg_3" d="m202.709,297.681c-4.39,0 -7.227,0.379 -8.905,0.772l0,56.896c1.679,0.394 4.39,0.394 6.841,0.394c17.809,0.126 29.424,-9.677 29.424,-30.449c0.126,-18.063 -10.458,-27.613 -27.36,-27.613z"/>
   <path fill="#839cb2" id="svg_4" d="m315.458,0l-193.647,0c-28.29,0 -51.315,23.041 -51.315,51.315l0,189.754l-5.012,0c-11.418,0 -20.678,9.251 -20.678,20.679l0,125.404c0,11.427 9.259,20.677 20.678,20.677l5.012,0l0,22.995c0,28.305 23.025,51.315 51.315,51.315l264.223,0c28.272,0 51.3,-23.011 51.3,-51.315l0,-309.375l-121.876,-121.449zm-216.405,284.379c6.06,-1.024 14.578,-1.796 26.579,-1.796c12.128,0 20.772,2.315 26.58,6.965c5.548,4.382 9.292,11.615 9.292,20.127c0,8.51 -2.837,15.745 -7.999,20.646c-6.714,6.32 -16.643,9.157 -28.258,9.157c-2.585,0 -4.902,-0.128 -6.714,-0.379l0,31.096l-19.48,0l0,-85.816zm286.981,166.334l-264.223,0c-10.954,0 -19.874,-8.92 -19.874,-19.889l0,-22.995l246.31,0c11.42,0 20.679,-9.25 20.679,-20.677l0,-125.404c0,-11.428 -9.259,-20.679 -20.679,-20.679l-246.31,0l0,-189.754c0,-10.938 8.921,-19.858 19.874,-19.858l181.89,-0.19l0,67.233c0,19.638 15.934,35.587 35.587,35.587l65.862,-0.189l0.741,296.925c0,10.97 -8.904,19.89 -19.857,19.89zm-211.969,-80.912l0,-85.422c7.225,-1.15 16.642,-1.796 26.58,-1.796c16.516,0 27.226,2.963 35.618,9.282c9.031,6.714 14.704,17.416 14.704,32.781c0,16.643 -6.06,28.133 -14.453,35.224c-9.157,7.612 -23.096,11.222 -40.125,11.222c-10.198,0 -17.423,-0.646 -22.324,-1.291zm140.827,-50.575l0,15.996l-31.23,0l0,34.973l-19.74,0l0,-86.966l53.16,0l0,16.122l-33.42,0l0,19.875l31.23,0z"/>
  </g>
  <g id="svg_5"/>
  <g id="svg_6"/>
  <g id="svg_7"/>
  <g id="svg_8"/>
  <g id="svg_9"/>
  <g id="svg_10"/>
  <g id="svg_11"/>
  <g id="svg_12"/>
  <g id="svg_13"/>
  <g id="svg_14"/>
  <g id="svg_15"/>
  <g id="svg_16"/>
  <g id="svg_17"/>
  <g id="svg_18"/>
  <g id="svg_19"/>
 </g>
</svg>