<svg width="482.14" height="482.14" xmlns="http://www.w3.org/2000/svg">

 <g>
  <title>background</title>
  <rect fill="none" id="canvas_background" height="402" width="582" y="-1" x="-1"/>
 </g>
 <g>
  <title>Layer 1</title>
  <g id="svg_1">
   <path fill="#839cb2" id="svg_2" d="m126.019,310.194c0,-8.007 -5.547,-12.782 -15.351,-12.782c-4.003,0 -6.714,0.395 -8.133,0.773l0,25.69c1.672,0.378 3.736,0.504 6.573,0.504c10.449,0 16.911,-5.279 16.911,-14.185z"/>
   <path fill="#839cb2" id="svg_3" d="m315.458,0l-193.646,0c-28.291,0 -51.316,23.041 -51.316,51.315l0,189.754l-5.013,0c-11.426,0 -20.677,9.251 -20.677,20.679l0,125.404c0,11.427 9.251,20.677 20.677,20.677l5.013,0l0,22.995c0,28.305 23.025,51.315 51.316,51.315l264.22,0c28.275,0 51.302,-23.011 51.302,-51.315l0,-309.375l-121.876,-121.449zm-232.402,284.379c6.052,-1.024 14.563,-1.796 26.572,-1.796c12.135,0 20.772,2.315 26.589,6.965c5.546,4.382 9.282,11.615 9.282,20.127c0,8.51 -2.837,15.745 -7.991,20.646c-6.714,6.32 -16.659,9.157 -28.258,9.157c-2.585,0 -4.917,-0.128 -6.715,-0.379l0,31.096l-19.479,0l0,-85.816zm302.976,166.334l-264.22,0c-10.954,0 -19.875,-8.92 -19.875,-19.889l0,-22.995l246.304,0c11.426,0 20.677,-9.25 20.677,-20.677l0,-125.404c0,-11.428 -9.251,-20.679 -20.677,-20.679l-246.304,0l0,-189.754c0,-10.938 8.921,-19.858 19.875,-19.858l181.89,-0.19l0,67.233c0,19.638 15.934,35.587 35.587,35.587l65.861,-0.189l0.741,296.925c0,10.97 -8.904,19.89 -19.859,19.89zm-174.026,-142.064l0,-25.421l18.063,0l0,86.966l-20.645,0l-18.582,-33.554c-5.169,-9.283 -10.844,-20.521 -15.098,-30.702l-0.38,0.126c0.506,11.475 0.774,23.734 0.774,37.936l0,26.194l-18.078,0l0,-86.966l22.979,0l18.061,31.867c5.171,9.157 10.324,20 14.2,29.803l0.379,0c-1.293,-11.472 -1.673,-23.231 -1.673,-36.249zm79.135,46.572c4.521,0 8.132,-0.52 9.676,-1.291l0,-18.188l-13.412,0l0,-15.352l32.389,0l0,45.8c-6.068,2.065 -17.558,4.901 -29.032,4.901c-15.87,0 -27.359,-4.003 -35.366,-11.741c-7.99,-7.486 -12.388,-18.833 -12.246,-31.615c0.126,-28.904 21.152,-45.421 49.678,-45.421c11.222,0 19.873,2.191 24.129,4.271l-4.129,15.728c-4.775,-2.063 -10.717,-3.734 -20.268,-3.734c-16.375,0 -28.764,9.283 -28.764,28.132c-0.001,17.936 11.22,28.51 27.345,28.51z"/>
  </g>
  <g id="svg_4"/>
  <g id="svg_5"/>
  <g id="svg_6"/>
  <g id="svg_7"/>
  <g id="svg_8"/>
  <g id="svg_9"/>
  <g id="svg_10"/>
  <g id="svg_11"/>
  <g id="svg_12"/>
  <g id="svg_13"/>
  <g id="svg_14"/>
  <g id="svg_15"/>
  <g id="svg_16"/>
  <g id="svg_17"/>
  <g id="svg_18"/>
 </g>
</svg>