<?xml version="1.0" encoding="iso-8859-1"?>
<!-- Generator: Adobe Illustrator 19.0.0, SVG Export Plug-In . SVG Version: 6.00 Build 0)  -->
<svg version="1.1" id="Capa_1" xmlns="http://www.w3.org/2000/svg" xmlns:xlink="http://www.w3.org/1999/xlink" x="0px" y="0px"
	 viewBox="0 0 384 384" style="enable-background:new 0 0 384 384;" xml:space="preserve">
<polygon style="fill:#EFEEEE;" points="72,8 376,8 376,280 280,376 72,376 "/>
<polygon style="fill:#ABABAB;" points="280,280 376,280 280,376 "/>
<rect x="8" y="88" style="fill:#CB5641;" width="256" height="128"/>
<path style="fill:#010101;" d="M64,0v80H0v144h64v160h224l96-96V0H64z M16,96h240v112H16V96z M288,361.6V288h73.6L288,361.6z
	 M368,272h-96v96H80V224h192V80H80V16h288V272z"/>
<path style="fill:#FFFFFF;" d="M92,181.6c-4,3.2-10.4,4.8-17.6,4.8c-8,0-13.6-1.6-16.8-4.8s-4.8-8-4.8-14.4v-2.4h13.6v1.6
	c0,1.6,0,3.2,0.8,4c0,1.6,0.8,2.4,1.6,3.2s1.6,1.6,3.2,2.4c0.8,0.8,2.4,0.8,4.8,0.8c2.4,0,4-0.8,5.6-2.4c1.6-1.6,2.4-3.2,2.4-6.4
	c0-1.6,0-3.2-0.8-4c0-0.8-0.8-2.4-2.4-3.2c-0.8-0.8-2.4-1.6-4-2.4c-1.6-0.8-3.2-1.6-5.6-2.4c-3.2-0.8-5.6-2.4-8-3.2
	c-2.4-0.8-4-2.4-5.6-4s-2.4-3.2-3.2-5.6c-0.8-2.4-0.8-4.8-0.8-7.2c0-6.4,1.6-12,5.6-15.2s8.8-4.8,15.2-4.8c3.2,0,5.6,0,8.8,0.8
	c2.4,0.8,4.8,1.6,6.4,3.2c1.6,1.6,3.2,3.2,4,5.6c0.8,2.4,1.6,4.8,1.6,8v2.4H82.4c0-3.2-0.8-5.6-1.6-7.2c-0.8-1.6-3.2-2.4-5.6-2.4
	c-1.6,0-3.2,0-4,0.8s-1.6,0.8-2.4,1.6c-0.8,0.8-0.8,1.6-1.6,2.4s0,1.6,0,3.2c0,2.4,0.8,4,1.6,5.6s3.2,2.4,5.6,4l10.4,4.8
	c2.4,0.8,4.8,2.4,6.4,4c1.6,1.6,3.2,2.4,4,4s1.6,3.2,2.4,4.8c0,1.6,0.8,4,0.8,5.6C98.4,172.8,96.8,178.4,92,181.6z M144,185.6h-17.6
	l-16-68.8h14.4l9.6,50.4l0,0l10.4-50.4H160L144,185.6z M219.2,185.6h-10.4v-6.4l0,0c-1.6,2.4-4,4.8-6.4,5.6c-2.4,0.8-4.8,1.6-8,1.6
	c-4,0-8-0.8-10.4-2.4s-4.8-4-6.4-7.2s-2.4-7.2-3.2-11.2c-0.8-4.8-0.8-9.6-0.8-16c0-5.6,0-11.2,0.8-15.2s1.6-8,4-11.2
	c1.6-3.2,4-4.8,7.2-6.4c3.2-1.6,6.4-2.4,11.2-2.4c7.2,0,12.8,1.6,16,5.6s4.8,8.8,4.8,16H204c0-1.6,0-2.4-0.8-4s-0.8-2.4-1.6-4
	c-0.8-0.8-1.6-2.4-2.4-2.4c-0.8-0.8-2.4-0.8-4-0.8c-3.2,0-5.6,1.6-7.2,5.6c-1.6,4-2.4,9.6-2.4,18.4c0,4,0,8,0,11.2s0.8,6.4,1.6,8.8
	s1.6,4,3.2,5.6c1.6,1.6,3.2,1.6,4.8,1.6c0.8,0,1.6,0,2.4-0.8s1.6-0.8,2.4-2.4c0.8-0.8,1.6-2.4,2.4-3.2c0.8-1.6,0.8-3.2,0.8-4.8v-7.2
	h-8.8v-10.4h22.4C219.2,148.8,219.2,185.6,219.2,185.6z"/>
<g>
</g>
<g>
</g>
<g>
</g>
<g>
</g>
<g>
</g>
<g>
</g>
<g>
</g>
<g>
</g>
<g>
</g>
<g>
</g>
<g>
</g>
<g>
</g>
<g>
</g>
<g>
</g>
<g>
</g>
</svg>
