<svg width="384" height="384" xmlns="http://www.w3.org/2000/svg">

 <g>
  <title>background</title>
  <rect fill="none" id="canvas_background" height="402" width="582" y="-1" x="-1"/>
 </g>
 <g>
  <title>Layer 1</title>
  <g id="svg_1">
   <g id="svg_2">
    <path fill="#839cb2" id="svg_3" d="m64,0l0,80l-64,0l0,144l64,0l0,160l224,0l96,-96l0,-288l-320,0zm-48,208l0,-112l240,0l0,112l-240,0zm272,153.376l0,-73.376l73.376,0l-73.376,73.376zm80,-89.376l-96,0l0,96l-192,0l0,-144l192,0l0,-144l-192,0l0,-64l288,0l0,256z"/>
   </g>
  </g>
  <g id="svg_4">
   <g id="svg_5">
    <path fill="#839cb2" id="svg_6" d="m91.12,160.976c-0.4,-1.744 -1.072,-3.312 -2.064,-4.752s-2.32,-2.784 -3.984,-4.032c-1.664,-1.264 -3.808,-2.464 -6.432,-3.616l-10.656,-4.608c-2.928,-1.2 -4.848,-2.528 -5.744,-3.984c-0.912,-1.44 -1.344,-3.2 -1.344,-5.328c0,-1.024 0.112,-2.016 0.336,-2.976c0.224,-0.96 0.672,-1.84 1.28,-2.576c0.608,-0.736 1.424,-1.328 2.448,-1.776c1.008,-0.432 2.288,-0.672 3.824,-0.672c2.688,0 4.608,0.896 5.76,2.64c1.152,1.776 1.728,4.288 1.728,7.552l13.248,0l0,-1.92c0,-3.264 -0.544,-6.064 -1.6,-8.4c-1.04,-2.32 -2.528,-4.24 -4.4,-5.744c-1.888,-1.52 -4.144,-2.592 -6.736,-3.264c-2.576,-0.672 -5.424,-1.008 -8.48,-1.008c-6.592,0 -11.792,1.664 -15.568,4.992s-5.664,8.368 -5.664,15.152c0,2.832 0.336,5.296 1.04,7.456c0.704,2.144 1.808,4.032 3.312,5.664c1.52,1.648 3.376,3.072 5.632,4.272c2.24,1.216 4.896,2.352 7.968,3.376c2.288,0.768 4.224,1.52 5.792,2.256c1.568,0.736 2.832,1.536 3.792,2.448c0.976,0.88 1.664,1.888 2.064,3.008c0.416,1.12 0.624,2.448 0.624,3.984c0,2.864 -0.848,5.008 -2.544,6.384c-1.68,1.376 -3.584,2.064 -5.696,2.064c-1.792,0 -3.28,-0.272 -4.464,-0.768c-1.184,-0.512 -2.128,-1.216 -2.832,-2.128c-0.704,-0.896 -1.184,-2 -1.44,-3.312c-0.256,-1.296 -0.416,-2.752 -0.416,-4.352l0,0l0,-2l-13.824,0l0,2.784c0,6.336 1.68,11.2 5.04,14.592c3.36,3.392 8.944,5.088 16.752,5.088c7.488,0 13.328,-1.664 17.52,-4.96c4.208,-3.296 6.304,-8.56 6.304,-15.792c0,-2.096 -0.192,-4.032 -0.576,-5.744z"/>
   </g>
  </g>
  <g id="svg_7">
   <g id="svg_8">
    <polygon fill="#839cb2" id="svg_9" points="138.672,117.856 128.496,168.544 128.192,168.544 118.544,117.856 103.76,117.856 119.488,186.4 137.248,186.4     152.992,117.856   "/>
   </g>
  </g>
  <g id="svg_10">
   <g id="svg_11">
    <path fill="#839cb2" id="svg_12" d="m189.76,149.44l0,10.176l9.104,0l0,7.008c0,1.856 -0.288,3.488 -0.864,4.864c-0.576,1.376 -1.296,2.496 -2.16,3.408c-0.88,0.896 -1.792,1.568 -2.784,2.016c-1.008,0.432 -1.904,0.672 -2.752,0.672c-1.984,0 -3.6,-0.624 -4.848,-1.872c-1.248,-1.248 -2.208,-3.04 -2.88,-5.376s-1.136,-5.168 -1.392,-8.496s-0.384,-7.024 -0.384,-11.136c0,-8.56 0.736,-14.72 2.208,-18.416c1.488,-3.728 3.872,-5.584 7.2,-5.584c1.408,0 2.624,0.368 3.616,1.104c0.976,0.736 1.792,1.68 2.432,2.784c0.64,1.12 1.104,2.352 1.392,3.696c0.288,1.344 0.432,2.656 0.432,3.92l13.216,0c0,-6.992 -1.664,-12.352 -4.992,-16.08c-3.328,-3.76 -8.768,-5.632 -16.32,-5.632c-4.416,0 -8.08,0.736 -11.04,2.208c-2.928,1.488 -5.312,3.664 -7.088,6.576c-1.792,2.928 -3.056,6.56 -3.792,10.912c-0.736,4.336 -1.104,9.408 -1.104,15.152c0,5.952 0.272,11.184 0.784,15.696c0.496,4.512 1.504,8.288 3.008,11.376c1.504,3.088 3.568,5.344 6.24,6.816s6.112,2.224 10.336,2.224c3.264,0 6.064,-0.56 8.4,-1.68s4.336,-3.008 6,-5.712l0.192,0l0,6.336l10.192,0l0,-36.96l-22.352,0z"/>
   </g>
  </g>
  <g id="svg_13"/>
  <g id="svg_14"/>
  <g id="svg_15"/>
  <g id="svg_16"/>
  <g id="svg_17"/>
  <g id="svg_18"/>
  <g id="svg_19"/>
  <g id="svg_20"/>
  <g id="svg_21"/>
  <g id="svg_22"/>
  <g id="svg_23"/>
  <g id="svg_24"/>
  <g id="svg_25"/>
  <g id="svg_26"/>
  <g id="svg_27"/>
 </g>
</svg>